<svg xmlns="http://www.w3.org/2000/svg" xml:space="preserve" width="76px" height="74px" fill-rule="evenodd" clip-rule="evenodd" viewBox="0 0 76 74" xmlns:xlink="http://www.w3.org/1999/xlink">
  <path fill="#f6255a" d="M7.62 14.66c14.74,-1.28 20,3.81 23.79,12.85 -5.04,1.07 -9.31,0.47 -12.24,-1.88 -1.8,-1.45 -1.8,-2.41 1.53,-1.51 1.6,0.42 2.95,0.85 4.34,0.59 -1.43,-4.31 -7.02,-7.06 -12.42,-5.99 2.26,11.04 11.2,13.3 20.76,10.21l2.51 3.05c-15.3,6.6 -26.81,-0.65 -28.27,-17.32z"/>
  <path fill="#f6255a" d="M37.33 0.74c10.46,10.47 9.93,17.77 5.45,26.48 -4.05,-3.17 -6.34,-6.82 -6.42,-10.58 -0.05,-2.31 0.68,-2.92 2.14,0.21 0.7,1.49 1.24,2.8 2.33,3.7 2.38,-3.87 0.9,-9.92 -3.4,-13.37 -7,8.83 -3.37,16.94 5.16,22.28l-0.73 3.88c-14.89,-7.47 -16.36,-20.75 -4.53,-32.6z"/>
  <path fill="#f6255a" d="M67.62 14.01c-1.65,14.7 -7.69,18.85 -17.29,20.78 -0.05,-5.15 1.37,-9.21 4.26,-11.62 1.77,-1.48 2.71,-1.29 1.18,1.8 -0.74,1.48 -1.42,2.72 -1.44,4.14 4.51,-0.56 8.31,-5.5 8.32,-11 -11.27,0.04 -15.75,7.76 -14.6,17.75l-3.49 1.86c-3.04,-15.58 6.42,-25.56 23.06,-23.71z"/>
  <path fill="#f6255a" d="M0.49 46.87c8.29,-12.25 15.56,-13.12 24.96,-10.38 -2.34,4.59 -5.49,7.53 -9.17,8.32 -2.26,0.49 -3,-0.11 -0.2,-2.14 1.33,-0.97 2.52,-1.75 3.19,-3 -4.25,-1.6 -9.91,1.01 -12.48,5.88 10,5.2 17.39,-0.31 21.01,-9.69l3.95 -0.03c-4.51,16.04 -17.39,20.41 -31.26,11.04z"/>
  <path fill="#f6255a" d="M75.57 47.84c-12.99,7.08 -19.85,4.51 -26.94,-2.25 4.19,-3 8.34,-4.16 11.97,-3.17 2.23,0.6 2.61,1.48 -0.8,1.99 -1.64,0.25 -3.05,0.4 -4.22,1.2 3.05,3.37 9.27,3.65 13.79,0.51 -6.5,-9.21 -15.59,-7.71 -23.12,-1.04l-3.52 -1.8c11.38,-12.17 24.83,-10.13 32.84,4.56z"/>
  <path fill="#f6255a" d="M54.3 73c-13.75,-5.46 -16.17,-12.38 -15.51,-22.15 4.98,1.3 8.53,3.75 10.1,7.16 0.96,2.11 0.53,2.96 -2.05,0.67 -1.24,-1.1 -2.26,-2.09 -3.62,-2.48 -0.64,4.5 3.12,9.46 8.43,10.93 2.92,-10.89 -4.05,-16.92 -13.99,-18.44l-0.88 -3.85c16.64,0.96 23.68,12.59 17.52,28.16z"/>
  <path fill="#f6255a" d="M21.24 72.89c-4.4,-14.12 -0.55,-20.35 7.47,-25.98 2.12,4.69 2.45,8.99 0.78,12.35 -1.03,2.08 -1.97,2.28 -1.81,-1.17 0.08,-1.65 0.21,-3.07 -0.34,-4.37 -3.91,2.33 -5.4,8.38 -3.2,13.42 10.3,-4.57 10.6,-13.78 5.53,-22.47l2.45 -3.1c9.72,13.54 5.1,26.33 -10.88,31.32z"/>
</svg>
