<svg width="47" height="30" xmlns="http://www.w3.org/2000/svg">
  <g transform="matrix(0.515929933841171,0,0,0.515929933841171,-1.0129413083609633,-1.0129517410919096) ">
   <path fill="#fff" d="m38.195464,1.976617a2.0002,2.0002 0 0 0 -0.9375,0.375l-34,25a2.0002,2.0002 0 0 0 0,3.21876l34,25a2.0002,2.0002 0 0 0 3.1875,-1.5938l0,-10.9687c5.30128,-0.052 30.47242,0.5408 48.6875,16.4687a2.0002,2.0002 0 0 0 3.2187,-2.125c-8.3538,-25.738 -33.82984,-37.05565 -51.9062,-41.87496l0,-11.5a2.0002,2.0002 0 0 0 -2.25,-2zm-1.75,5.9375l0,9.0625a2.0002,2.0002 0 0 0 1.5,1.9375c15.83376,4.0084 37.76868,13.32856 47.7188,33.09376c-20.57111,-13.8573 -45.45249,-13.1187 -47.31255,-13.0313a2.0002,2.0002 0 0 0 -1.90625,2l0,9.0313l-28.625,-21.0313l28.625,-21.06246z"/>
  </g>
</svg>