<svg width="15" height="16" xmlns="http://www.w3.org/2000/svg" viewBox="0 0 16 16">
	<g stroke="null" transform="matrix(0.016254783485523755,0,0,0.016254783485523755,-227.18028653972067,-154.11639060204004) ">
		<path fill="#f6255a" stroke="null" d="m14535.40222,9499.500552c-2.4,-0.5 -4.8,-0.8 -7.2,-0.9c-21.7,-0.8 -40.6,14 -45,35.3c-2.4,11.6 -0.2,23.4 6.3,33.3c6.5,9.9 16.4,16.6 28,19c93.1,19.1 173.2,73.6 225.6,153.2c52.4,79.6 70.7,174.7 51.5,267.8c-2.4,11.6 -0.2,23.4 6.4,33.2c6.5,9.9 16.5,16.6 28,19c2.4,0.5 4.9,0.8 7.3,0.9c9.3,0.3 18.2,-2.2 26,-7.3c9.9,-6.5 16.6,-16.5 19,-28c49.5,-240.2 -105.7,-476 -345.9,-525.5l0,0l0,0zm76.1,664.5c2.6,1.7 61,39.2 105.8,85.3c16.9,17.4 45.2,46.6 44.4,80.4c-0.6,23.1 -13.7,46.3 -39.9,70.7c-6.5,6.4 -64.9,60.9 -158.3,60.9c-25.6,0 -51.9,-4.1 -78.1,-12.1c-27.6,-8.4 -55.6,-21.3 -83.3,-38.3c-109.2,-64.5 -193.5,-147.6 -273.5,-269.4c-137.5,-209.3 -141.5,-388.6 -140.8,-422.4c0.2,-156 130.1,-217.3 144.9,-223.8c20.4,-9.4 38.2,-14 54.6,-14c7.9,0 15.4,1.1 22.3,3.2c14.3,4.3 34.2,15.6 47.6,44.5c18.2,39.3 35.5,95.6 47.2,154.5c12.4,61.2 -21.9,78.3 -55.1,94.9l-1.3,0.6c0,0 -58.7,24.5 -69,28.7c-10.1,4.2 -15.4,15.7 -12,26.1c23.7,71.7 59.8,146 104.5,215c43.9,67.9 96.2,130.5 151.1,181.2c3.9,3.6 9,5.6 14.3,5.6l1.8,-0.1c5.8,-0.5 11.2,-3.4 14.8,-8c8.9,-11.5 22.6,-28 37,-41.8c27.4,-26 52.1,-38.7 75.7,-38.7c6.4,0 12.8,0.9 19,2.8c6,1.9 15.6,7.1 26.3,14.2l0,0l0,0zm-185.8,-301.8c-11.6,-2.4 -21.5,-9.1 -28,-19c-6.5,-9.9 -8.8,-21.7 -6.4,-33.3c4.4,-21.3 23.4,-36.1 45,-35.2c2.4,0.1 4.8,0.4 7.3,0.9c102.7,21.2 169,122 147.9,224.7c-2.4,11.5 -9.1,21.5 -19,28c-7.8,5.1 -16.8,7.6 -26,7.3c-2.4,-0.1 -4.8,-0.4 -7.2,-0.9c-11.6,-2.4 -21.6,-9.1 -28.1,-19c-6.5,-9.8 -8.7,-21.6 -6.3,-33.2c5.5,-26.6 0.3,-53.7 -14.7,-76.5c-15.1,-22.8 -37.9,-38.3 -64.5,-43.8l0,0l0,0zm46,-138.6c-23.9,-5 -39.3,-28.4 -34.4,-52.2c4.4,-21.3 23.3,-36.2 45,-35.3c2.4,0.1 4.8,0.4 7.3,0.9c83.1,17.1 154.6,65.7 201.4,136.8c46.7,71 63.1,155.9 45.9,239c-2.4,11.6 -9.1,21.6 -19,28c-7.8,5.1 -16.7,7.6 -26,7.3c-2.4,-0.1 -4.9,-0.4 -7.3,-0.9c-23.8,-4.9 -39.3,-28.3 -34.4,-52.2c12.4,-60 0.6,-121.3 -33.2,-172.6c-33.7,-51.4 -85.3,-86.4 -145.3,-98.8l0,0z"/>
	</g>
</svg>