<svg xmlns="http://www.w3.org/2000/svg" xmlns:xlink="http://www.w3.org/1999/xlink" viewBox="0 0 472 472">
<path style="fill:#8C6239;" d="M232,96h16v64h-16V96z"/>
<path style="fill:#FBB03B;" d="M272,88c0,17.673-14.327,32-32,32s-32-14.327-32-32c0-32,32-64,32-64S272,56,272,88z"/>
<path style="fill:#998675;" d="M344,448H136V160l208-32V448z"/>
<path style="fill:#FED856;" d="M64,352h80v-42.792c-0.007-28.56-15.256-54.945-40-69.208c-24.744,14.263-39.993,40.648-40,69.208
	V352z"/>
<path style="fill:#EEB83B;" d="M120,384c0.01,10.781-2.167,21.453-6.4,31.368c-3.185,0.401-6.39,0.612-9.6,0.632
	c-44.183,0.003-80.003-35.811-80.006-79.994c-0.001-10.783,2.178-21.455,6.406-31.374c3.185-0.401,6.39-0.612,9.6-0.632
	C84.183,304,120,339.817,120,384L120,384z"/>
<path style="fill:#CD9829;" d="M88,384c-0.01,10.781,2.167,21.453,6.4,31.368c3.185,0.401,6.39,0.612,9.6,0.632
	c44.183,0.003,80.003-35.811,80.006-79.994c0.001-10.783-2.178-21.455-6.406-31.374c-3.185-0.401-6.39-0.612-9.6-0.632
	C123.817,304,88,339.817,88,384L88,384z"/>
<path style="fill:#EEB83B;" d="M280,288h144c26.51,0,48,21.49,48,48l0,0c0,26.51-21.49,48-48,48H280c-26.51,0-48-21.49-48-48l0,0
	C232,309.49,253.49,288,280,288z"/>
<path style="fill:#FED856;" d="M312,192h112c26.51,0,48,21.49,48,48l0,0c0,26.51-21.49,48-48,48H312c-26.51,0-48-21.49-48-48l0,0
	C264,213.49,285.49,192,312,192z"/>
<path style="fill:#CD9829;" d="M400,264h-80c-13.255,0-24-10.745-24-24s10.745-24,24-24h48c4.418,0,8,3.582,8,8s-3.582,8-8,8h-48
	c-4.418,0-8,3.582-8,8s3.582,8,8,8h80c13.255,0,24-10.745,24-24c0-13.255-10.745-24-24-24h-32c-4.418,0-8-3.582-8-8s3.582-8,8-8h32
	c22.091,0,40,17.909,40,40S422.091,264,400,264z"/>
<path style="fill:#8C6239;" d="M232,384h240v32H232V384z"/>
	<path style="fill:#603813;" d="M248,416v32h32l16-32H248z"/>
	<path style="fill:#603813;" d="M456,416v32h-32l-16-32H456z"/>
<path style="fill:#CD9829;" d="M384,360h-80c-13.255,0-24-10.745-24-24s10.745-24,24-24h48c4.418,0,8,3.582,8,8s-3.582,8-8,8h-48
	c-4.418,0-8,3.582-8,8s3.582,8,8,8h80c13.255,0,24-10.745,24-24s-10.745-24-24-24h-32c-4.418,0-8-3.582-8-8s3.582-8,8-8h32
	c22.091,0,40,17.909,40,40S406.091,360,384,360z"/>
	<path style="fill:#C7B299;" d="M160,184h16v64h-16V184z"/>
	<path style="fill:#C7B299;" d="M160,264h16v16h-16V264z"/>
<path style="fill:#603813;" d="M168,448H40l-16-32h160L168,448z"/>
<path style="fill:#8C6239;" d="M0,408h208v16H0V408z"/>
</svg>
