<svg xmlns="http://www.w3.org/2000/svg" xml:space="preserve" fill-rule="evenodd" clip-rule="evenodd" viewBox="0 0 76 74" xmlns:xlink="http://www.w3.org/1999/xlink">
  <circle fill="#3EA2E5" fill-rule="nonzero" cx="38.56" cy="42.02" r="30.89"/>
   <circle fill="#DFEEF4" fill-rule="nonzero" cx="38.56" cy="42.02" r="23.74"/>
   <polygon fill="#F45858" fill-rule="nonzero" points="32.66,0.64 44.46,0.64 44.46,5.81 32.66,5.81 "/>
   <path fill="#F45858" fill-rule="nonzero" d="M56.08 16.58l0.06 0.03 3.65 -6.35 -4.48 -2.58 -3.65 6.36 0.06 0.03c1.51,0.71 2.98,1.56 4.36,2.51l0 0z"/>
   <path fill="#F45858" fill-rule="nonzero" d="M21.05 16.58c1.38,-0.95 2.84,-1.8 4.36,-2.51l0.06 -0.03 -3.66 -6.36 -4.48 2.57 3.66 6.36 0.06 -0.03z"/>
   <path fill="#F45858" fill-rule="nonzero" d="M35.98 5.81l0 5.43 0.12 0c0.81,-0.07 1.63,-0.11 2.46,-0.11 0.83,0 1.65,0.04 2.46,0.11l0.13 0 0 -5.43 -5.17 0z"/>
  <path fill="red" fill-rule="nonzero" d="M45.62 29.36c4.64,0.02 8.39,3.77 8.41,8.41 0,8.5 -15.47,16.92 -15.47,16.92 0,0 -15.47,-8.54 -15.47,-16.92 0,-4.65 3.77,-8.41 8.42,-8.41l0 0c2.84,-0.03 5.5,1.41 7.05,3.79 1.56,-2.37 4.22,-3.8 7.06,-3.79z"/>
</svg>
