<svg width="19" height="16" xmlns="http://www.w3.org/2000/svg">
  <rect fill="url(#gridpattern)" stroke-width="0" y="0" x="0" height="100%" width="100%"/>
  <g transform="matrix(0.2260183153467271,0,0,0.24157835193754498,-0.7409019349794481,-0.817790844019609) ">
   <path fill="#f6255a" stroke-width="3.999999" stroke-linecap="round" stroke-linejoin="round" stroke-miterlimit="4" stroke-dashoffset="0" d="m32.273244,3.389565c-3.28941,0 -6,2.71059 -6,6l0,6l-19,0c-2.216,0 -4,1.784 -4,4l0,4.90625c0.2727,0.23177 1.24378,1.05837 1.25,1.0625c9.09713,7.17748 23.95274,12.03125 40.75,12.03125c16.79726,0 31.65287,-4.85377 40.75,-12.03125c0.00622,-0.00413 0.9773,-0.83073 1.25,-1.0625l0,-4.90625c0,-2.216 -1.784,-4 -4,-4l-19,0l0,-6c0,-3.28941 -2.71059,-6 -6,-6l-26,0zm0,4l26,0c1.14259,0 2,0.85741 2,2l0,6l-30,0l0,-6c0,-1.14259 0.85741,-2 2,-2zm-29,22.0625l0,35.9375c0,2.216 1.784,4 4,4l76,0c2.216,0 4,-1.784 4,-4l0,-35.9375c-8.65773,6.34611 -21.00847,10.58363 -35,11.65625l0,3.28125c0,1.108 -0.892,2 -2,2l-10,0c-1.108,0 -2,-0.892 -2,-2l0,-3.28125c-13.99153,-1.07261 -26.34227,-5.3101 -35,-11.65625z"/>
 </g>
</svg>